<svg xmlns="http://www.w3.org/2000/svg" width="1200" height="700" viewBox="0 0 1200 700">
  <style>
    .cls { fill:#fff; stroke:#2b2b2b; stroke-width:2; font-family: Arial, Helvetica, sans-serif }
    .title { font-weight:700; font-size:16px }
    .section { font-size:13px }
    .strokebox { stroke:#123; }
  </style>

  <!-- ParsedPage -->
  <g>
    <rect x="40" y="40" width="320" height="120" rx="6" class="cls" />
    <text x="60" y="64" class="title">ParsedPage</text>
    <line x1="40" y1="88" x2="360" y2="88" stroke="#2b2b2b"/>
    <text x="56" y="108" class="section">- html: str</text>
    <text x="56" y="126" class="section">- metadata: dict</text>
    <text x="56" y="144" class="section">+ extract_items(): List[dict]</text>
  </g>

  <!-- MovieScraper -->
  <g>
    <rect x="420" y="40" width="360" height="160" rx="6" class="cls" />
    <text x="440" y="64" class="title">MovieScraper</text>
    <line x1="420" y1="92" x2="780" y2="92" stroke="#2b2b2b"/>
    <text x="436" y="112" class="section">- client: HttpsLClient</text>
    <text x="436" y="132" class="section">- parser: ParsedPage</text>
    <text x="436" y="152" class="section">+ scrape(year): List[Movie]</text>
    <text x="436" y="172" class="section">+ fetch(url): ParsedPage</text>
  </g>

  <!-- Movie -->
  <g>
    <rect x="40" y="220" width="300" height="140" rx="6" class="cls" />
    <text x="60" y="244" class="title">Movie</text>
    <line x1="40" y1="268" x2="340" y2="268" stroke="#2b2b2b"/>
    <text x="56" y="288" class="section">- title: str</text>
    <text x="56" y="308" class="section">- rating: float</text>
    <text x="56" y="328" class="section">- plot: str</text>
    <text x="56" y="348" class="section">+ to_json(): dict</text>
  </g>

  <!-- DataSetManager -->
  <g>
    <rect x="380" y="220" width="360" height="140" rx="6" class="cls" />
    <text x="400" y="244" class="title">DataSetManager</text>
    <line x1="380" y1="268" x2="740" y2="268" stroke="#2b2b2b"/>
    <text x="396" y="288" class="section">- base_dir: str</text>
    <text x="396" y="308" class="section">+ save_movies(movies, filename)</text>
    <text x="396" y="328" class="section">+ load_movies(filename)</text>
  </g>

  <!-- HttpsLClient -->
  <g>
    <rect x="780" y="220" width="320" height="120" rx="6" class="cls" />
    <text x="800" y="244" class="title">HttpsLClient</text>
    <line x1="780" y1="268" x2="1100" y2="268" stroke="#2b2b2b"/>
    <text x="796" y="288" class="section">- session: requests.Session</text>
    <text x="796" y="308" class="section">+ get(url): Response</text>
    <text x="796" y="328" class="section">+ get_with_retries(url)</text>
  </g>

  <!-- Relationships -->
  <defs>
    <marker id="arrow" markerWidth="10" markerHeight="10" refX="8" refY="5" orient="auto">
      <path d="M0,0 L10,5 L0,10 z" fill="#2b2b2b"/>
    </marker>
  </defs>

  <!-- Scraper uses SessionManager -->
  <line x1="380" y1="120" x2="440" y2="120" stroke="#2b2b2b" marker-end="url(#arrow)" />
  <text x="420" y="110" font-size="12">uses</text>

  <!-- Scraper creates Movie instances -->
  <line x1="200" y1="200" x2="200" y2="240" stroke="#2b2b2b" marker-end="url(#arrow)" />
  <text x="180" y="220" font-size="12">creates</text>

  <!-- Scraper saves via DataStore -->
  <line x1="360" y1="200" x2="360" y2="240" stroke="#2b2b2b" marker-end="url(#arrow)" />
  <text x="330" y="220" font-size="12">persists to</text>

  <!-- CLI drives Scraper -->
  <line x1="720" y1="200" x2="200" y2="200" stroke="#2b2b2b" marker-end="url(#arrow)" />
  <text x="470" y="190" font-size="12">invokes</text>

  <!-- Footer / title -->
  <text x="40" y="420" font-size="14" fill="#333">UML: Suggested class layout for this repository (refactor-friendly). Generated: 2025-11-05</text>

</svg>
